# xmcd
#
# Track frame offsets: 
#        150
#        12867
#        27660
#        42600
#        56417
#        74780
#        84429
#        99954
#        114840
#        130100
#        147012
#        160947
#        177477
#        187502
#
# Disc length: 2704 seconds
#
# Revision: 2
# Processed by: cddbd v1.5.2PL0 Copyright (c) Steve Scherf et al.
# Submitted via: ExactAudioCopy v0.95a5
#
DISCID=b50a8e0e
DTITLE=Various Artist - HOT HITS COUNTRY VOL 38
DYEAR=1900
DGENRE=Country
TTITLE0=RICKY VAN SHELTON - WHEREVER SHE IS
TTITLE1=MAVERICKS - THERE GOES MY HEART
TTITLE2=FAITH HILL - TAKE ME AS I AM
TTITLE3=JOHN ANDERSON - COUNTRY TIL I DIE
TTITLE4=VINCE GILL - WHEN LOVE FINDS YOU
TTITLE5=GEORGE STRAIGHT - BIG ONE
TTITLE6=RANDY TRAVIS - THIS IS ME
TTITLE7=ALABAMA - WE CAN'T LOVE LIKE THIS ANYMORE
TTITLE8=SAMMY KERSHAW - THIRD RATE ROMANCE
TTITLE9=TANYA TUCKER - YOU JUST WATCH ME
TTITLE10=GEORGE DUCAS - TEARDROPS
TTITLE11=LEE ROY PARNELL - POWER OF LOVE
TTITLE12=CLAY WALKER - IF I COULD MAKE A LIVING
TTITLE13=BRYAN WHITE - EUGENE YOU GENIUS
EXTD=
EXTT0=VanShelton - Ricky
EXTT1=Mavericks - The
EXTT2=Hill - Faith
EXTT3=Anderson - John
EXTT4=Gill - Vince
EXTT5=Strait - George
EXTT6=Travis - Randy
EXTT7=Alabama
EXTT8=Kershaw - Sammy
EXTT9=Tucker - Tanya
EXTT10=Ducas - George
EXTT11=Parnell - Lee Roy
EXTT12=Walker - Clay
EXTT13=White - Bryan
PLAYORDER=
